<?xml version="1.0" encoding="UTF-8"?>
<svg width="478px" height="352px" viewBox="0 0 478 352" version="1.1" xmlns="http://www.w3.org/2000/svg" xmlns:xlink="http://www.w3.org/1999/xlink">
    <!-- Generator: Sketch 49.1 (51147) - http://www.bohemiancoding.com/sketch -->
    <title>controller-mobile</title>
    <desc>Created with Sketch.</desc>
    <defs>
        <linearGradient x1="-1.11022302e-14%" y1="50%" x2="100%" y2="50%" id="linearGradient-1">
            <stop stop-color="#FFFFFF" stop-opacity="0" offset="0%"></stop>
            <stop stop-color="#FFFFFF" offset="20%"></stop>
            <stop stop-color="#FFFFFF" offset="80%"></stop>
            <stop stop-color="#FFFFFF" stop-opacity="0" offset="100%"></stop>
        </linearGradient>
        <linearGradient x1="50%" y1="-2.48949813e-15%" x2="50%" y2="100%" id="linearGradient-2">
            <stop stop-color="#FFFFFF" stop-opacity="0" offset="0%"></stop>
            <stop stop-color="#FFFFFF" offset="20%"></stop>
            <stop stop-color="#FFFFFF" offset="80%"></stop>
            <stop stop-color="#FFFFFF" stop-opacity="0" offset="100%"></stop>
        </linearGradient>
    </defs>
    <g id="Icons" stroke="none" stroke-width="1" fill="none" fill-rule="evenodd">
        <g transform="translate(-591.000000, -185.000000)" id="controller-mobile">
            <g transform="translate(591.000000, 185.000000)">
                <g id="controller-symbol">
                    <g>
                        <path d="M298,214 C279.003269,214 263.099514,200.757391 259.016564,183 L198.983436,183 C194.900486,200.757391 178.996731,214 160,214 C153.538311,214 147.434481,212.467827 142.031993,209.746965 C138.901256,208.170228 136.006043,206.194306 133.413199,203.886044 C109.220209,251.951972 96.4684736,277.365774 95.1579939,280.127451 C88.7413525,293.64974 74.9626113,303 59,303 C36.90861,303 19,285.09139 19,263 C19,261.290066 19.1072937,259.605193 19.315516,257.951744 L29,103 C29,80.7915362 41.0659514,61.4012264 58.9999833,51.0269414 L59,47 C59,43.6862915 61.6862915,41 65,41 L113,41 C116.313708,41 119,43.6862915 119,47 L119,51.0269317 C120.081101,51.6523151 121.140867,52.3104549 122.177951,53 L335.822049,53 C336.859133,52.3104549 337.918899,51.6523151 338.999989,51.0269382 L339,47 C339,43.6862915 341.686292,41 345,41 L393,41 C396.313708,41 399,43.6862915 399,47 L399,51.0269317 C416.934049,61.4012264 429,80.7915362 429,103 L438.684484,257.951744 C438.892706,259.605193 439,261.290066 439,263 C439,285.09139 421.09139,303 399,303 C383.037389,303 369.258648,293.64974 362.842006,280.127451 C361.531526,277.365774 348.779791,251.951972 324.586801,203.886043 C317.519674,210.177507 308.206233,214 298,214 Z" id="Combined-Shape" stroke="#FFFFFF" stroke-width="8"></path>
                        <circle id="Oval-3" stroke="#FFFFFF" stroke-width="2" cx="369" cy="73" r="14"></circle>
                        <circle id="Oval-3" stroke="#FFFFFF" stroke-width="2" cx="339" cy="103" r="14"></circle>
                        <circle id="Oval-3" stroke="#FFFFFF" stroke-width="2" cx="399" cy="103" r="14"></circle>
                        <circle id="Oval-3" stroke="#FFFFFF" stroke-width="2" cx="369" cy="133" r="14"></circle>
                        <g id="Group-2" transform="translate(52.000000, 66.000000)" stroke="#FFFFFF" stroke-width="2">
                            <path d="M49.6595364,27.8840253 L41.2911158,36.2946751 C40.9029614,36.6847883 40.9029614,37.3152117 41.2911158,37.7053249 L49.6595364,46.1159747 C50.2225734,46.681853 50.9879228,47 51.7861889,47 L70.0029323,47 C71.6597865,47 73.0029323,45.6568542 73.0029323,44 L73.0029323,30 C73.0029323,28.3431458 71.6597865,27 70.0029323,27 L51.7861889,27 C50.9879228,27 50.2225734,27.318147 49.6595364,27.8840253 Z" id="Combined-Shape"></path>
                            <path d="M9.65953643,27.8840253 L1.29111583,36.2946751 C0.90296139,36.6847883 0.90296139,37.3152117 1.29111583,37.7053249 L9.65953643,46.1159747 C10.2225734,46.681853 10.9879228,47 11.7861889,47 L30.0029323,47 C31.6597865,47 33.0029323,45.6568542 33.0029323,44 L33.0029323,30 C33.0029323,28.3431458 31.6597865,27 30.0029323,27 L11.7861889,27 C10.9879228,27 10.2225734,27.318147 9.65953643,27.8840253 Z" id="Combined-Shape" transform="translate(17.001466, 37.000000) scale(-1, 1) translate(-17.001466, -37.000000) "></path>
                            <path d="M29.6580703,47.8854914 L21.2896497,56.2961412 C20.9014953,56.6862544 20.9014953,57.3166779 21.2896497,57.706791 L29.6580703,66.1174409 C30.2211073,66.6833191 30.9864567,67.0014661 31.7847228,67.0014661 L50.0014661,67.0014661 C51.6583204,67.0014661 53.0014661,65.6583204 53.0014661,64.0014661 L53.0014661,50.0014661 C53.0014661,48.3446119 51.6583204,47.0014661 50.0014661,47.0014661 L31.7847228,47.0014661 C30.9864567,47.0014661 30.2211073,47.3196131 29.6580703,47.8854914 Z" id="Combined-Shape" transform="translate(37.000000, 57.001466) rotate(90.000000) translate(-37.000000, -57.001466) "></path>
                            <path d="M29.6580703,7.88549138 L21.2896497,16.2961412 C20.9014953,16.6862544 20.9014953,17.3166779 21.2896497,17.706791 L29.6580703,26.1174409 C30.2211073,26.6833191 30.9864567,27.0014661 31.7847228,27.0014661 L50.0014661,27.0014661 C51.6583204,27.0014661 53.0014661,25.6583204 53.0014661,24.0014661 L53.0014661,10.0014661 C53.0014661,8.34461188 51.6583204,7.00146613 50.0014661,7.00146613 L31.7847228,7.00146613 C30.9864567,7.00146613 30.2211073,7.31961315 29.6580703,7.88549138 Z" id="Combined-Shape" transform="translate(37.000000, 17.001466) scale(1, -1) rotate(90.000000) translate(-37.000000, -17.001466) "></path>
                        </g>
                        <circle id="Oval-4" stroke="#FFFFFF" stroke-width="2" cx="160" cy="173" r="31"></circle>
                        <circle id="Oval-4" stroke="#FFFFFF" stroke-width="2" cx="298" cy="173" r="31"></circle>
                        <g id="Group-3" opacity="0.800000012">
                            <circle id="Oval-5" stroke="" transform="translate(88.873532, 102.873532) rotate(-10.000000) translate(-88.873532, -102.873532) " cx="88.8735321" cy="102.873532" r="55.5"></circle>
                            <circle id="Oval-5" stroke="" transform="translate(59.373532, 263.373532) rotate(-110.000000) translate(-59.373532, -263.373532) " cx="59.3735321" cy="263.373532" r="36"></circle>
                            <circle id="Oval-5" stroke="" transform="translate(399.373532, 263.373532) rotate(-69.000000) translate(-399.373532, -263.373532) " cx="399.373532" cy="263.373532" r="36"></circle>
                            <circle id="Oval-5" stroke="" transform="translate(369.000000, 103.000000) rotate(-220.000000) translate(-369.000000, -103.000000) " cx="369" cy="103" r="55.5"></circle>
                            <rect id="Rectangle-3" fill="url(#linearGradient-1)" x="10" y="37" width="148" height="1"></rect>
                            <rect id="Rectangle-3" fill="url(#linearGradient-1)" x="300" y="37" width="138" height="1"></rect>
                            <rect id="Rectangle-3" fill="url(#linearGradient-1)" x="0" y="103" width="478" height="1"></rect>
                            <polygon id="Rectangle-3" fill="url(#linearGradient-2)" points="230 5 230 233 229 233 229 5"></polygon>
                            <polygon id="Rectangle-3" fill="url(#linearGradient-2)" transform="translate(21.360959, 173.890382) rotate(3.500000) translate(-21.360959, -173.890382) " points="21.8609587 -0.109617738 21.8609587 347.890382 20.8609587 347.890382 20.8609587 -0.109617738"></polygon>
                            <polygon id="Rectangle-3" fill="url(#linearGradient-2)" transform="translate(436.360959, 173.890382) scale(-1, 1) rotate(3.500000) translate(-436.360959, -173.890382) " points="436.860959 -0.109617738 436.860959 347.890382 435.860959 347.890382 435.860959 -0.109617738"></polygon>
                            <polygon id="Rectangle-3" fill="url(#linearGradient-2)" transform="translate(347.654496, 258.504465) scale(-1, 1) rotate(26.500000) translate(-347.654496, -258.504465) " points="348.154496 154.504465 348.154496 362.504465 347.154496 362.504465 347.154496 154.504465"></polygon>
                            <polygon id="Rectangle-3" fill="url(#linearGradient-2)" transform="translate(109.654496, 258.504465) rotate(26.500000) translate(-109.654496, -258.504465) " points="110.154496 154.504465 110.154496 362.504465 109.154496 362.504465 109.154496 154.504465"></polygon>
                        </g>
                    </g>
                </g>
            </g>
        </g>
    </g>
</svg>