<?xml version="1.0" encoding="UTF-8"?>
<svg width="500px" height="1000px" viewBox="0 0 500 1000" version="1.1" xmlns="http://www.w3.org/2000/svg" xmlns:xlink="http://www.w3.org/1999/xlink">
    <!-- Generator: Sketch 49.1 (51147) - http://www.bohemiancoding.com/sketch -->
    <title>logo</title>
    <desc>Created with Sketch.</desc>
    <defs>
        <rect id="path-1" x="0" y="0" width="500" height="500"></rect>
        <rect id="path-3" x="0" y="0" width="500" height="500"></rect>
    </defs>
    <g id="Page-1" stroke="none" stroke-width="1" fill="none" fill-rule="evenodd">
        <g id="Animated" transform="translate(-393.000000, -868.000000)">
            <g id="logo" transform="translate(393.000000, 868.000000)">
                <g id="logo-copy">
                    <mask id="mask-2" fill="white">
                        <use xlink:href="#path-1"></use>
                    </mask>
                    <use id="Mask" fill-opacity="0.1" fill="#FFFFFF" xlink:href="#path-1"></use>
                    <g id="Group-4" mask="url(#mask-2)">
                        <g transform="translate(-55.000000, 72.000000)">
                            <g id="Group-3" stroke-width="1" fill="none" transform="translate(0.000000, 68.000000)">
                                <g id="Group-2" transform="translate(167.600314, 305.618600) rotate(20.000000) translate(-167.600314, -305.618600) translate(80.600314, 54.618600)">
                                    <path d="M166,497 L166,497 C163.47176,500.1603 159.644034,502 155.596876,502 L18.4031242,502 C14.3559658,502 10.5282398,500.1603 8,497 L8,497 C5.39946519,493.749331 3.88812788,489.762558 3.68024323,485.604865 L2.23555527,456.711105 C2.08221009,453.644202 2.87251386,450.603978 4.5,448 L4.5,448 C6.1337359,445.386023 7,442.365536 7,439.283009 L7,220.324555 C7,216.135584 6.32466903,211.974007 5,208 L5,208 C3.68237024,204.047111 3.23829402,199.855354 3.6984303,195.714127 L4,193 C4.66504049,187.014636 5.91967352,181.109598 7.74562589,175.37089 L8.5,173 C10.818266,165.714021 14.2923949,158.847957 18.789499,152.664439 L20,151 C25.3242316,143.679182 30.0345079,135.930984 34.0827625,127.834475 L35,126 C39.6381514,116.723697 42.7976035,106.779323 44.3639214,96.5270599 L53,40 L53,40 C50.4557168,38.0917876 48.8488866,35.1866395 48.5847726,32.0172712 L48.5,31 C48.167867,27.0144037 48.3152606,23.0033497 48.939019,19.0528794 L50.506803,9.12358076 C50.8350399,7.04474732 51.334471,4.99658686 52,3 L52,3 C52.5971903,1.20842913 54.2737961,-2.21895793e-13 56.1622777,-2.25597319e-13 L117.837722,-1.99840144e-13 C119.726204,-2.06896287e-13 121.40281,1.20842913 122,3 L122,3 C122.665529,4.99658686 123.16496,7.04474732 123.493197,9.12358076 L125.060981,19.0528794 C125.684739,23.0033497 125.832133,27.0144037 125.5,31 L125.415227,32.0172712 C125.151113,35.1866395 123.544283,38.0917876 121,40 L129.636079,96.5270599 C131.202396,106.779323 134.361849,116.723697 139,126 L139.917237,127.834475 C143.965492,135.930984 148.675768,143.679182 154,151 L155.210501,152.664439 C159.707605,158.847957 163.181734,165.714021 165.5,173 L166.254374,175.37089 C168.080326,181.109598 169.33496,187.014636 170,193 L170.30157,195.714127 C170.761706,199.855354 170.31763,204.047111 169,208 L169,208 C167.675331,211.974007 167,216.135584 167,220.324555 L167,439.283009 C167,442.365536 167.866264,445.386023 169.5,448 L169.5,448 C171.127486,450.603978 171.91779,453.644202 171.764445,456.711105 L170.319757,485.604865 C170.111872,489.762558 168.600535,493.749331 166,497 Z" id="Combined-Shape" stroke="#FFFFFF" stroke-width="20"></path>
                                    <rect id="Rectangle-5" fill="#FFFFFF" x="0" y="211" width="174" height="20"></rect>
                                    <rect id="Rectangle-5" fill="#FFFFFF" x="0" y="418" width="174" height="20"></rect>
                                </g>
                                <g id="Group-2" transform="translate(441.600314, 265.618600) scale(-1, 1) rotate(20.000000) translate(-441.600314, -265.618600) translate(354.600314, 14.618600)">
                                    <path d="M166,497 L166,497 C163.47176,500.1603 159.644034,502 155.596876,502 L18.4031242,502 C14.3559658,502 10.5282398,500.1603 8,497 L8,497 C5.39946519,493.749331 3.88812788,489.762558 3.68024323,485.604865 L2.23555527,456.711105 C2.08221009,453.644202 2.87251386,450.603978 4.5,448 L4.5,448 C6.1337359,445.386023 7,442.365536 7,439.283009 L7,220.324555 C7,216.135584 6.32466903,211.974007 5,208 L5,208 C3.68237024,204.047111 3.23829402,199.855354 3.6984303,195.714127 L4,193 C4.66504049,187.014636 5.91967352,181.109598 7.74562589,175.37089 L8.5,173 C10.818266,165.714021 14.2923949,158.847957 18.789499,152.664439 L20,151 C25.3242316,143.679182 30.0345079,135.930984 34.0827625,127.834475 L35,126 C39.6381514,116.723697 42.7976035,106.779323 44.3639214,96.5270599 L53,40 L53,40 C50.4557168,38.0917876 48.8488866,35.1866395 48.5847726,32.0172712 L48.5,31 C48.167867,27.0144037 48.3152606,23.0033497 48.939019,19.0528794 L50.506803,9.12358076 C50.8350399,7.04474732 51.334471,4.99658686 52,3 L52,3 C52.5971903,1.20842913 54.2737961,-2.21895793e-13 56.1622777,-2.25597319e-13 L117.837722,-1.99840144e-13 C119.726204,-2.06896287e-13 121.40281,1.20842913 122,3 L122,3 C122.665529,4.99658686 123.16496,7.04474732 123.493197,9.12358076 L125.060981,19.0528794 C125.684739,23.0033497 125.832133,27.0144037 125.5,31 L125.415227,32.0172712 C125.151113,35.1866395 123.544283,38.0917876 121,40 L129.636079,96.5270599 C131.202396,106.779323 134.361849,116.723697 139,126 L139.917237,127.834475 C143.965492,135.930984 148.675768,143.679182 154,151 L155.210501,152.664439 C159.707605,158.847957 163.181734,165.714021 165.5,173 L166.254374,175.37089 C168.080326,181.109598 169.33496,187.014636 170,193 L170.30157,195.714127 C170.761706,199.855354 170.31763,204.047111 169,208 L169,208 C167.675331,211.974007 167,216.135584 167,220.324555 L167,439.283009 C167,442.365536 167.866264,445.386023 169.5,448 L169.5,448 C171.127486,450.603978 171.91779,453.644202 171.764445,456.711105 L170.319757,485.604865 C170.111872,489.762558 168.600535,493.749331 166,497 Z" id="Combined-Shape" stroke="#FFFFFF" stroke-width="20"></path>
                                    <rect id="Rectangle-5" fill="#FFFFFF" x="0" y="211" width="174" height="20"></rect>
                                    <rect id="Rectangle-5" fill="#FFFFFF" x="0" y="418" width="174" height="20"></rect>
                                </g>
                            </g>
                            <rect id="Rectangle-7" fill="#FFFFFF" transform="translate(292.000000, 29.000000) rotate(-8.000000) translate(-292.000000, -29.000000) " x="284" y="1" width="16" height="56" rx="8"></rect>
                            <rect id="Rectangle-7" fill="#FFFFFF" transform="translate(333.000000, 50.000000) rotate(32.000000) translate(-333.000000, -50.000000) " x="325" y="32" width="16" height="36" rx="8"></rect>
                            <rect id="Rectangle-7" fill="#FFFFFF" transform="translate(258.000000, 61.000000) rotate(-40.000000) translate(-258.000000, -61.000000) " x="250" y="43" width="16" height="36" rx="8"></rect>
                        </g>
                    </g>
                    <rect id="Rectangle-6" fill="#FFFFFF" mask="url(#mask-2)" x="129" y="281" width="84" height="10"></rect>
                    <rect id="Rectangle-6" fill="#FFFFFF" mask="url(#mask-2)" x="289" y="241" width="84" height="10"></rect>
                </g>
                <g id="logo-animated" transform="translate(0.000000, 500.000000)">
                    <mask id="mask-4" fill="white">
                        <use xlink:href="#path-3"></use>
                    </mask>
                    <use id="Mask" fill-opacity="0.1" fill="#FFFFFF" xlink:href="#path-3"></use>
                    <rect id="Rectangle-7" fill="#FFFFFF" mask="url(#mask-4)" transform="translate(237.000000, 81.000000) rotate(-8.000000) translate(-237.000000, -81.000000) " x="229" y="53" width="16" height="56" rx="8"></rect>
                    <rect id="Rectangle-7" fill="#FFFFFF" mask="url(#mask-4)" transform="translate(288.000000, 112.000000) rotate(32.000000) translate(-288.000000, -112.000000) " x="280" y="94" width="16" height="36" rx="8"></rect>
                    <rect id="Rectangle-7" fill="#FFFFFF" mask="url(#mask-4)" transform="translate(193.000000, 123.000000) rotate(-40.000000) translate(-193.000000, -123.000000) " x="185" y="105" width="16" height="36" rx="8"></rect>
                    <g id="Group" mask="url(#mask-4)">
                        <g transform="translate(113.000000, 446.000000) rotate(5.000000) translate(-113.000000, -446.000000) translate(-55.000000, 180.000000)">
                            <g id="Group-2" stroke-width="1" fill="none" transform="translate(167.600314, 265.618600) rotate(20.000000) translate(-167.600314, -265.618600) translate(80.600314, 14.618600)">
                                <path d="M166,497 L166,497 C163.47176,500.1603 159.644034,502 155.596876,502 L18.4031242,502 C14.3559658,502 10.5282398,500.1603 8,497 L8,497 C5.39946519,493.749331 3.88812788,489.762558 3.68024323,485.604865 L2.23555527,456.711105 C2.08221009,453.644202 2.87251386,450.603978 4.5,448 L4.5,448 C6.1337359,445.386023 7,442.365536 7,439.283009 L7,220.324555 C7,216.135584 6.32466903,211.974007 5,208 L5,208 C3.68237024,204.047111 3.23829402,199.855354 3.6984303,195.714127 L4,193 C4.66504049,187.014636 5.91967352,181.109598 7.74562589,175.37089 L8.5,173 C10.818266,165.714021 14.2923949,158.847957 18.789499,152.664439 L20,151 C25.3242316,143.679182 30.0345079,135.930984 34.0827625,127.834475 L35,126 C39.6381514,116.723697 42.7976035,106.779323 44.3639214,96.5270599 L53,40 L53,40 C50.4557168,38.0917876 48.8488866,35.1866395 48.5847726,32.0172712 L48.5,31 C48.167867,27.0144037 48.3152606,23.0033497 48.939019,19.0528794 L50.506803,9.12358076 C50.8350399,7.04474732 51.334471,4.99658686 52,3 L52,3 C52.5971903,1.20842913 54.2737961,-2.21895793e-13 56.1622777,-2.25597319e-13 L117.837722,-1.99840144e-13 C119.726204,-2.06896287e-13 121.40281,1.20842913 122,3 L122,3 C122.665529,4.99658686 123.16496,7.04474732 123.493197,9.12358076 L125.060981,19.0528794 C125.684739,23.0033497 125.832133,27.0144037 125.5,31 L125.415227,32.0172712 C125.151113,35.1866395 123.544283,38.0917876 121,40 L129.636079,96.5270599 C131.202396,106.779323 134.361849,116.723697 139,126 L139.917237,127.834475 C143.965492,135.930984 148.675768,143.679182 154,151 L155.210501,152.664439 C159.707605,158.847957 163.181734,165.714021 165.5,173 L166.254374,175.37089 C168.080326,181.109598 169.33496,187.014636 170,193 L170.30157,195.714127 C170.761706,199.855354 170.31763,204.047111 169,208 L169,208 C167.675331,211.974007 167,216.135584 167,220.324555 L167,439.283009 C167,442.365536 167.866264,445.386023 169.5,448 L169.5,448 C171.127486,450.603978 171.91779,453.644202 171.764445,456.711105 L170.319757,485.604865 C170.111872,489.762558 168.600535,493.749331 166,497 Z" id="Combined-Shape" stroke="#FFFFFF" stroke-width="20"></path>
                                <rect id="Rectangle-5" fill="#FFFFFF" x="0" y="211" width="174" height="20"></rect>
                            </g>
                            <rect id="Rectangle-6" fill="#FFFFFF" x="184" y="101" width="84" height="10"></rect>
                        </g>
                    </g>
                    <g id="Group-5" mask="url(#mask-4)">
                        <g transform="translate(387.000000, 406.000000) rotate(-5.000000) translate(-387.000000, -406.000000) translate(219.000000, 140.000000)">
                            <g id="Group-2" stroke-width="1" fill="none" transform="translate(167.600314, 265.618600) scale(-1, 1) rotate(20.000000) translate(-167.600314, -265.618600) translate(80.600314, 14.618600)">
                                <path d="M166,497 L166,497 C163.47176,500.1603 159.644034,502 155.596876,502 L18.4031242,502 C14.3559658,502 10.5282398,500.1603 8,497 L8,497 C5.39946519,493.749331 3.88812788,489.762558 3.68024323,485.604865 L2.23555527,456.711105 C2.08221009,453.644202 2.87251386,450.603978 4.5,448 L4.5,448 C6.1337359,445.386023 7,442.365536 7,439.283009 L7,220.324555 C7,216.135584 6.32466903,211.974007 5,208 L5,208 C3.68237024,204.047111 3.23829402,199.855354 3.6984303,195.714127 L4,193 C4.66504049,187.014636 5.91967352,181.109598 7.74562589,175.37089 L8.5,173 C10.818266,165.714021 14.2923949,158.847957 18.789499,152.664439 L20,151 C25.3242316,143.679182 30.0345079,135.930984 34.0827625,127.834475 L35,126 C39.6381514,116.723697 42.7976035,106.779323 44.3639214,96.5270599 L53,40 L53,40 C50.4557168,38.0917876 48.8488866,35.1866395 48.5847726,32.0172712 L48.5,31 C48.167867,27.0144037 48.3152606,23.0033497 48.939019,19.0528794 L50.506803,9.12358076 C50.8350399,7.04474732 51.334471,4.99658686 52,3 L52,3 C52.5971903,1.20842913 54.2737961,-2.21895793e-13 56.1622777,-2.25597319e-13 L117.837722,-1.99840144e-13 C119.726204,-2.06896287e-13 121.40281,1.20842913 122,3 L122,3 C122.665529,4.99658686 123.16496,7.04474732 123.493197,9.12358076 L125.060981,19.0528794 C125.684739,23.0033497 125.832133,27.0144037 125.5,31 L125.415227,32.0172712 C125.151113,35.1866395 123.544283,38.0917876 121,40 L129.636079,96.5270599 C131.202396,106.779323 134.361849,116.723697 139,126 L139.917237,127.834475 C143.965492,135.930984 148.675768,143.679182 154,151 L155.210501,152.664439 C159.707605,158.847957 163.181734,165.714021 165.5,173 L166.254374,175.37089 C168.080326,181.109598 169.33496,187.014636 170,193 L170.30157,195.714127 C170.761706,199.855354 170.31763,204.047111 169,208 L169,208 C167.675331,211.974007 167,216.135584 167,220.324555 L167,439.283009 C167,442.365536 167.866264,445.386023 169.5,448 L169.5,448 C171.127486,450.603978 171.91779,453.644202 171.764445,456.711105 L170.319757,485.604865 C170.111872,489.762558 168.600535,493.749331 166,497 Z" id="Combined-Shape" stroke="#FFFFFF" stroke-width="20"></path>
                                <rect id="Rectangle-5" fill="#FFFFFF" x="0" y="211" width="174" height="20"></rect>
                            </g>
                            <rect id="Rectangle-6" fill="#FFFFFF" x="70" y="101" width="84" height="10"></rect>
                        </g>
                    </g>
                </g>
            </g>
        </g>
    </g>
</svg>