<?xml version="1.0" encoding="UTF-8"?>
<svg width="1440px" height="900px" viewBox="0 0 1440 900" version="1.1" xmlns="http://www.w3.org/2000/svg" xmlns:xlink="http://www.w3.org/1999/xlink">
    <!-- Generator: Sketch 49 (51002) - http://www.bohemiancoding.com/sketch -->
    <title>stars</title>
    <desc>Created with Sketch.</desc>
    <defs></defs>
    <g id="stars" stroke="none" stroke-width="1" fill="none" fill-rule="evenodd">
        <circle id="Oval-3" fill="#D8D8D8" transform="translate(1179.958307, 581.803006) rotate(170.000000) translate(-1179.958307, -581.803006) " cx="1179.95831" cy="581.803006" r="3"></circle>
        <circle id="Oval-3" fill="#D8D8D8" transform="translate(867.127121, 708.043448) rotate(170.000000) translate(-867.127121, -708.043448) " cx="867.127121" cy="708.043448" r="3"></circle>
        <circle id="Oval-3" fill="#D8D8D8" transform="translate(634.841079, 657.613349) rotate(170.000000) translate(-634.841079, -657.613349) " cx="634.841079" cy="657.613349" r="3"></circle>
        <circle id="Oval-3" fill="#D8D8D8" opacity="0.400000006" transform="translate(222.435576, 334.315188) rotate(170.000000) translate(-222.435576, -334.315188) " cx="222.435576" cy="334.315188" r="3"></circle>
        <circle id="Oval-3" fill="#D8D8D8" opacity="0.400000006" transform="translate(336.520645, 578.209831) rotate(170.000000) translate(-336.520645, -578.209831) " cx="336.520645" cy="578.209831" r="3"></circle>
        <circle id="Oval-3" fill="#D8D8D8" opacity="0.699999988" transform="translate(422.797963, 837.161997) rotate(170.000000) translate(-422.797963, -837.161997) " cx="422.797963" cy="837.161997" r="3"></circle>
        <circle id="Oval-3" fill="#D8D8D8" opacity="0.400000006" transform="translate(722.927006, 408.533303) rotate(170.000000) translate(-722.927006, -408.533303) " cx="722.927006" cy="408.533303" r="3"></circle>
        <circle id="Oval-3" fill="#D8D8D8" transform="translate(646.473723, 320.471418) rotate(170.000000) translate(-646.473723, -320.471418) " cx="646.473723" cy="320.471418" r="3"></circle>
        <circle id="Oval-3" fill="#D8D8D8" transform="translate(575.253928, 89.327003) rotate(170.000000) translate(-575.253928, -89.327003) " cx="575.253928" cy="89.3270027" r="3"></circle>
        <circle id="Oval-3" fill="#D8D8D8" opacity="0.400000006" transform="translate(285.021047, 170.965689) rotate(170.000000) translate(-285.021047, -170.965689) " cx="285.021047" cy="170.965689" r="3"></circle>
        <circle id="Oval-3" fill="#D8D8D8" opacity="0.400000006" transform="translate(897.338336, 73.151896) rotate(170.000000) translate(-897.338336, -73.151896) " cx="897.338336" cy="73.1518959" r="3"></circle>
        <circle id="Oval-3" fill="#D8D8D8" opacity="0.699999988" transform="translate(873.574362, 168.730521) rotate(170.000000) translate(-873.574362, -168.730521) " cx="873.574362" cy="168.730521" r="3"></circle>
        <circle id="Oval-3" fill="#D8D8D8" opacity="0.400000006" transform="translate(929.141779, 483.869002) rotate(170.000000) translate(-929.141779, -483.869002) " cx="929.141779" cy="483.869002" r="3"></circle>
        <circle id="Oval-3" fill="#D8D8D8" opacity="0.400000006" transform="translate(1064.136756, 328.060285) rotate(170.000000) translate(-1064.136756, -328.060285) " cx="1064.13676" cy="328.060285" r="3"></circle>
        <circle id="Oval-3" fill="#D8D8D8" opacity="0.699999988" transform="translate(1301.061430, 347.209670) rotate(170.000000) translate(-1301.061430, -347.209670) " cx="1301.06143" cy="347.20967" r="3"></circle>
        <circle id="Oval-3" fill="#D8D8D8" opacity="0.400000006" transform="translate(1364.764485, 478.136828) rotate(170.000000) translate(-1364.764485, -478.136828) " cx="1364.76448" cy="478.136828" r="3"></circle>
        <circle id="Oval-3" fill="#D8D8D8" transform="translate(1324.182464, 708.686388) rotate(170.000000) translate(-1324.182464, -708.686388) " cx="1324.18246" cy="708.686388" r="3"></circle>
        <circle id="Oval-3" fill="#D8D8D8" opacity="0.400000006" transform="translate(1214.784112, 88.257504) rotate(170.000000) translate(-1214.784112, -88.257504) " cx="1214.78411" cy="88.2575036" r="3"></circle>
        <circle id="Oval-3" fill="#D8D8D8" opacity="0.699999988" transform="translate(1309.791923, 51.196531) rotate(170.000000) translate(-1309.791923, -51.196531) " cx="1309.79192" cy="51.1965307" r="3"></circle>
        <circle id="Oval-3" fill="#D8D8D8" opacity="0.699999988" transform="translate(429.221162, 470.475834) rotate(170.000000) translate(-429.221162, -470.475834) " cx="429.221162" cy="470.475834" r="3"></circle>
        <circle id="Oval-3" fill="#D8D8D8" opacity="0.400000006" transform="translate(217.154004, 822.651245) rotate(170.000000) translate(-217.154004, -822.651245) " cx="217.154004" cy="822.651245" r="3"></circle>
        <circle id="Oval-3" fill="#D8D8D8" transform="translate(615.120882, 833.713076) rotate(170.000000) translate(-615.120882, -833.713076) " cx="615.120882" cy="833.713076" r="3"></circle>
        <circle id="Oval-3" fill="#D8D8D8" opacity="0.400000006" transform="translate(1083.189971, 781.642665) rotate(170.000000) translate(-1083.189971, -781.642665) " cx="1083.18997" cy="781.642665" r="3"></circle>
        <circle id="Oval-3" fill="#D8D8D8" opacity="0.400000006" cx="277" cy="244.227733" r="5"></circle>
        <circle id="Oval-3" fill="#D8D8D8" cx="607" cy="174.227733" r="5"></circle>
        <circle id="Oval-3" fill="#D8D8D8" cx="827" cy="264.227733" r="5"></circle>
        <circle id="Oval-3" fill="#D8D8D8" cx="1177" cy="654.227733" r="5"></circle>
        <circle id="Oval-3" fill="#D8D8D8" opacity="0.400000006" cx="1107" cy="394.227733" r="5"></circle>
        <circle id="Oval-3" fill="#D8D8D8" cx="1067" cy="124.227733" r="5"></circle>
        <circle id="Oval-3" fill="#D8D8D8" cx="697" cy="494.227733" r="5"></circle>
        <circle id="Oval-3" fill="#D8D8D8" cx="757" cy="594.227733" r="5"></circle>
        <circle id="Oval-3" fill="#D8D8D8" opacity="0.400000006" cx="787" cy="834.227733" r="5"></circle>
        <circle id="Oval-3" fill="#D8D8D8" opacity="0.699999988" cx="1087" cy="804.227733" r="5"></circle>
        <circle id="Oval-3" fill="#D8D8D8" opacity="0.699999988" cx="467" cy="794.227733" r="5"></circle>
        <circle id="Oval-3" fill="#D8D8D8" cx="507" cy="704.227733" r="5"></circle>
        <circle id="Oval-3" fill="#D8D8D8" cx="427" cy="194.227733" r="5"></circle>
        <circle id="Oval-3" fill="#D8D8D8" opacity="0.400000006" cx="347" cy="514.227733" r="5"></circle>
        <circle id="Oval-3" fill="#D8D8D8" opacity="0.699999988" cx="117" cy="454.227733" r="5"></circle>
        <circle id="Oval-3" fill="#D8D8D8" cx="77" cy="314.227733" r="5"></circle>
        <circle id="Oval-3" fill="#D8D8D8" cx="157" cy="94.2277328" r="5"></circle>
        <circle id="Oval-3" fill="#D8D8D8" opacity="0.400000006" cx="157" cy="724.227733" r="5"></circle>
        <circle id="Oval-3" fill="#D8D8D8" cx="57" cy="744.227733" r="5"></circle>
        <circle id="Oval-3" fill="#D8D8D8" cx="287" cy="894.227733" r="5"></circle>
        <circle id="Oval-3" fill="#D8D8D8" cx="997" cy="484.227733" r="5"></circle>
        <circle id="Oval-3" fill="#D8D8D8" cx="1267" cy="174.227733" r="5"></circle>
        <circle id="Oval-3" fill="#D8D8D8" cx="877" cy="94.2277328" r="5"></circle>
        <circle id="Oval-3" fill="#D8D8D8" cx="407" cy="64.2277328" r="5"></circle>
    </g>
</svg>